<?xml version="1.0" encoding="utf-8" ?><svg xmlns="http://www.w3.org/2000/svg" xmlns:xlink="http://www.w3.org/1999/xlink" width="1091" height="1091" viewBox="0 0 1091 1091"><path fill="#117CF4" transform="scale(1.06537 1.06537)" d="M413.909 444.529C415.692 424.254 418.77 408.971 429.763 391.134C444.34 367.247 467.89 350.206 495.136 343.829C509.765 340.408 523.741 340.863 538.286 344.461C541.471 345.248 545.759 346.354 548.52 348.074C564.283 355.243 579.341 368.203 589.578 382.114C602.871 400.177 608.333 420.777 609.667 442.861C603.946 435.083 598.529 427.438 592.368 420.005C554.922 374.826 499.047 362.902 450.136 397.906C445.423 403.212 440.426 407.333 435.709 413.26C427.685 423.343 421.486 434.188 413.909 444.529Z"/><path fill="#9BD539" transform="scale(1.06537 1.06537)" d="M413.909 444.529C415.692 424.254 418.77 408.971 429.763 391.134C444.34 367.247 467.89 350.206 495.136 343.829C509.765 340.408 523.741 340.863 538.286 344.461C541.471 345.248 545.759 346.354 548.52 348.074C542.084 348.978 536.547 349.329 530.013 350.565C508.043 354.767 487.406 364.192 469.844 378.046C464.96 381.83 452.582 392.539 450.136 397.906C445.423 403.212 440.426 407.333 435.709 413.26C427.685 423.343 421.486 434.188 413.909 444.529Z"/><path fill="#9BD539" transform="scale(1.06537 1.06537)" d="M456.453 522.875C455.206 522.224 453.477 521.067 452.379 520.149C426.246 498.287 417.923 477.869 413.842 445.744C449.954 496.299 496.73 524.489 558.412 497.7C579.684 485.821 596.117 466.673 609.865 446.887C608.494 452.969 607.532 458.769 605.655 464.742C590.236 513.814 542.675 550.525 490.013 538.144C479.574 535.69 464.719 530.264 456.453 522.875Z"/><path fill="#117CF4" transform="scale(1.06537 1.06537)" d="M456.453 522.875C455.206 522.224 453.477 521.067 452.379 520.149C426.246 498.287 417.923 477.869 413.842 445.744C449.954 496.299 496.73 524.489 558.412 497.7C556.59 502.852 538.635 511.454 533.102 514.19C506.208 527.485 485.243 528.593 456.453 522.875Z"/><path fill="#117CF4" transform="scale(1.06537 1.06537)" d="M440.075 345.669L440.21 345.815C440.014 347.137 432.343 353.072 430.767 354.507C427.751 357.285 424.863 360.198 422.112 363.238C401.02 387.139 390.362 418.482 392.512 450.286C394.01 475.016 403.841 499.814 420.772 518.068C428.456 526.353 434.951 531.28 443.239 538.588C435.782 534.613 432.367 533.265 424.374 530.698C401.772 522.393 369.306 517.019 367.251 487.057C366.936 478.914 366.922 470.699 367.083 462.54C367.506 441.051 366.527 419.505 367.395 398.047C368.568 369.055 388.938 363.244 412.786 355.179C421.942 352.181 431.04 349.01 440.075 345.669Z"/><path fill="#202938" transform="scale(1.06537 1.06537)" d="M519.288 594.434C528.871 597.001 523.191 610.523 521.36 617.006C525.501 627.461 528.959 638.139 532.771 648.702C534.962 654.773 537.323 662.51 540.387 668.087C547.297 655.477 560.898 602.54 565.652 597.517C566.951 596.144 568.837 595.105 570.763 595.136C572.159 595.155 573.48 595.775 574.386 596.837C576.976 599.917 574.957 607.262 573.762 610.376C569.699 620.969 555.097 673.357 549.01 678.289C546.281 680.54 542.748 681.575 539.235 681.152C526.547 679.741 526.137 665.625 521.904 656.125C520.478 652.924 518.768 645.418 516.741 642.92L515.982 645.392C513.855 654.199 509.379 673.341 502.809 679.091C500.49 681.121 497.652 681.88 494.615 681.536C491.307 681.161 487.967 679.726 485.901 677.03C484.445 675.13 483.351 672.779 482.468 670.562C479.216 662.396 460.015 604.272 461.204 599.049C461.524 597.642 463.069 595.894 464.422 595.328C465.561 594.85 467.389 594.855 468.544 595.294C470.387 595.994 471.186 597.18 472.042 598.869C474.433 603.588 475.82 609.112 477.438 614.153C480.707 624.398 483.903 634.666 487.026 644.956C489.232 652.017 491.722 660.517 495.016 667.076C500.168 657.811 501.609 643.421 508.142 635.963C509.408 634.518 512.002 635.463 514.107 635.766L514.518 635.274C513.554 632.818 507.879 629.363 507.386 627.951C505.693 623.098 508.116 616.27 509.577 611.186C511.407 604.816 512.59 597.556 519.288 594.434Z"/><path fill="#01D264" transform="scale(1.06537 1.06537)" d="M582.931 344.995C601.135 351.874 632.977 359.11 646.673 371.705C658.617 382.689 657.103 401.198 657.07 416.063L657.004 443.818C650.357 450.218 638.381 466.597 630.19 470.25C629.016 469.968 629.32 470.275 628.687 469.583C631.562 456.422 632.379 442.895 631.11 429.484C627.378 391.793 611.228 368.249 582.931 344.995Z"/><path fill="#202938" transform="scale(1.06537 1.06537)" d="M596.86 622.165C624.409 619.568 634.51 639.93 632.509 664.218C632.06 669.667 633.739 681.002 626.473 681.922C623.222 681.154 622.155 678.797 620.306 676.036L613.299 679.619C612.458 679.904 611.605 680.151 610.742 680.359C602.844 682.302 594.144 681.667 587.136 677.289C580.212 672.92 575.344 665.943 573.633 657.938C569.755 640.027 579.236 626.128 596.86 622.165ZM604.773 668.768C611.111 667.898 616.475 663.65 618.774 657.68C621.073 651.709 619.944 644.961 615.827 640.064C611.709 635.167 605.255 632.897 598.978 634.138C589.659 635.98 583.494 644.897 585.061 654.266C586.629 663.635 595.362 670.06 604.773 668.768Z"/><path fill="#01D264" transform="scale(1.06537 1.06537)" d="M469.22 409.188C483.398 408.598 503.821 411.562 513.463 423.284C517.563 428.269 518.262 432.591 523.963 437.212L524.517 437.653C536.854 418.773 544.372 427.752 559.592 433.742L560.162 433.96C557.47 434.602 554.376 435.112 551.912 436.387C537.353 443.922 543.232 460.991 517.343 469.792C497.623 476.016 500.332 467.859 488.98 489.78C483.646 485.836 480.671 483.772 477.376 477.896C494.462 473.908 496.983 470.372 507.814 456.57C497.414 450.076 501.013 444.111 494.827 435.131C491.7 430.594 464.51 415.368 467.3 409.716L469.22 409.188Z"/><path fill="#202938" transform="scale(1.06537 1.06537)" d="M137.746 595.616C149.844 594.819 160.543 596.491 169.088 605.887C174.825 612.234 177.797 620.606 177.346 629.151C176.919 637.503 173.185 645.341 166.969 650.935C159.109 657.898 149.698 660.134 139.381 659.434C135.77 659.189 131.173 658.735 128.801 655.726C127.858 654.529 127.291 652.878 127.542 651.397C128.739 644.343 141.937 647.288 147.563 646.667C151.294 646.283 154.832 644.814 157.737 642.44C167.23 634.652 166.568 621.94 158.929 613.077C144.523 601.526 125.326 604.883 122.756 624.988C121.754 632.829 122.106 639.645 122.343 647.5C122.529 653.665 122.569 659.834 122.462 666.002C122.385 671.867 122.515 686.278 112.241 680.251C111.553 679.085 111.128 678.079 110.838 676.748C109.572 670.939 109.419 629.898 110.367 623.518C111.066 618.816 112.785 613.711 115.358 609.706C120.602 601.541 128.521 597.553 137.746 595.616Z"/><path fill="#202938" transform="scale(1.06537 1.06537)" d="M373.764 621.603C391.644 619.96 404.949 631.418 407.407 648.812C408.995 660.043 390.813 657.313 384.368 657.179C376.472 657.004 368.572 657.111 360.684 657.499C367.352 670.489 376.718 672.326 389.066 665.983C395.943 662.963 399.85 668.531 396.153 674.029C389.556 684.359 371.766 683.476 362.346 677.302C337.444 660.978 346.567 628.136 373.764 621.603ZM361.482 645.533L380.875 645.447C385.36 645.443 390.18 645.53 394.635 645.368C389.628 636.145 385.697 633.124 374.848 633.557C367.487 636.299 364.984 638.152 361.482 645.533Z"/><path fill="#04AF4E" transform="scale(1.06537 1.06537)" d="M657.004 443.818L657.088 470.009C657.14 481.161 658.414 492.704 652.571 502.765C644.399 516.835 629.426 520.494 615.097 525.64L582.995 537.282C606.525 519.348 621.689 498.619 628.687 469.583C629.32 470.275 629.016 469.968 630.19 470.25C638.381 466.597 650.357 450.218 657.004 443.818Z"/><path fill="#202938" transform="scale(1.06537 1.06537)" d="M759.576 594.891C768.513 594.226 767.542 603.307 767.425 609.551C767.314 615.518 767.271 621.418 767.338 627.384C771.234 625.025 773.238 623.692 777.719 622.522C784.531 620.777 791.757 621.795 797.823 625.354C804.072 629.141 808.575 635.241 810.355 642.329C812.349 649.969 812.161 659.317 812.027 667.228C811.95 671.803 812.227 681.365 806.697 682.701C805.137 682.457 803.674 681.79 802.467 680.772C798.933 677.739 800.575 655.631 799.839 648.526C798.393 640.13 789.678 632.85 781.02 634.317C762.746 637.495 768.629 659.391 767.779 672.354C767.586 675.295 766.226 682.687 761.864 682.273C755.88 681.705 755.738 675.988 755.719 670.833C755.633 646.887 755.874 622.79 755.869 598.843C755.869 597.089 758.301 595.711 759.576 594.891Z"/><path fill="#202938" transform="scale(1.06537 1.06537)" d="M234.91 621.641C265.076 619.107 270.148 642.324 269.599 666.935C269.803 670.986 269.204 680.565 264.112 681.819C256.212 683.765 257.319 668.547 257.207 665.324C256.801 656.37 259.54 643.557 251.155 637.338C240.382 629.347 228.516 633.299 223.018 644.949C219.654 656.404 226.565 668.173 238.969 669.175C243.452 669.537 248.306 666.938 253.107 667.111C254.09 667.728 254.73 668.21 254.86 669.492C256.605 686.676 232.379 682.268 224.097 676.948C217.012 672.445 212.083 665.235 210.459 656.999C208.896 649.078 210.539 640.862 215.027 634.152C220.094 626.645 226.408 623.367 234.91 621.641Z"/><path fill="#838498" transform="scale(1.06537 1.06537)" d="M866.656 636.561C875.782 635.819 880.041 637.094 886.417 643.501L886.366 636.539L893.555 636.465C893.625 648.444 894.439 669.79 893.526 681.066L886.439 681.177C886.374 679.43 886.332 677.936 886.123 676.202L885.408 676.054L883.422 677.859C881.398 679.396 879.885 680.175 877.415 680.919C871.699 682.678 865.519 682.086 860.241 679.274C854.528 676.112 850.32 670.792 848.56 664.503C844.543 650.32 853.31 640.01 866.656 636.561ZM873.264 675.269C882.205 673.972 888.414 665.687 887.149 656.741C885.884 647.795 877.623 641.556 868.672 642.788C859.675 644.026 853.396 652.34 854.667 661.333C855.939 670.326 864.276 676.573 873.264 675.269Z"/><path fill="#202938" transform="scale(1.06537 1.06537)" d="M715.838 621.672C722.294 620.942 727.87 623.078 733.498 625.92C749.283 633.892 745.549 654.993 728.635 637.589C723.179 631.975 712.148 632.034 706.027 638.375C688.691 656.331 715.167 684.016 732.412 661.863C734.242 659.974 738.676 657.213 741.318 658.636C745.581 660.932 744.169 666.707 741.97 669.966C737.976 675.882 731.477 679.772 724.521 681.122C716.171 682.7 707.496 681.345 700.471 676.417C694.225 672.035 690.039 665.293 688.882 657.752C685.854 638.826 696.793 624.441 715.838 621.672Z"/><path fill="#202938" transform="scale(1.06537 1.06537)" d="M307.157 621.625C317.732 620.495 327.718 624.569 333.377 633.834C339.372 643.649 339.072 654.036 338.566 665.12C338.361 669.61 340.074 678.396 334.927 680.635C333.515 681.237 331.92 681.246 330.501 680.659C317.252 675.248 340.678 642.745 312.247 633.388C309.231 633.012 304.512 633.743 302.012 635.325C288.405 643.937 296.297 664.563 292.995 677.413C292.579 678.933 291.576 681.231 289.938 681.783C286.058 683.091 282.935 680.73 282.28 676.908C281.592 672.891 282.097 669.382 282.072 665.467C282.004 654.833 280.201 643.049 286.636 633.743C291.863 626.258 298.665 623.39 307.157 621.625Z"/><path fill="#202938" transform="scale(1.06537 1.06537)" d="M648.006 595.09C655.053 594.741 656.34 599.392 656.385 605.706C656.423 610.967 656.299 616.299 656.179 621.561C662.229 621.287 683.316 618.73 681.872 629.118C680.957 635.701 660.716 633.817 656.025 633.682L655.986 637.614C655.877 650.295 655.405 668.654 673.376 668.465C676.15 668.474 681.005 668.519 682.503 670.723C689.571 681.05 674.357 682.56 667.443 680.718C648.474 675.665 642.519 659.475 643.794 641.43C644.766 627.685 643.016 612.287 644.411 598.463C644.56 596.987 646.863 595.796 648.006 595.09Z"/><path fill="#202938" transform="scale(1.06537 1.06537)" d="M421.499 594.932C433.12 596.981 429.932 612.383 429.556 621.532L430.366 621.496C434.851 621.296 450.856 619.965 453.481 623.959C462.174 637.182 435.025 634.076 429.531 633.96C428.854 650.352 427.295 667.847 449.045 668.785C463.175 668.404 458.299 681.811 446.242 681.419C438.035 681.085 430.313 677.439 424.84 671.313C421.68 667.812 419.472 663.558 418.429 658.958C415.92 647.944 418.162 614.422 417.855 601.464C417.771 597.884 419.021 597.09 421.499 594.932Z"/><path fill="#202938" transform="scale(1.06537 1.06537)" d="M190.97 594.499C193.704 594.548 195.391 594.557 197.497 596.394C198.193 597.649 198.387 599.534 198.391 600.996C198.461 626.306 199.388 651.825 198.39 677.087C198.315 679.011 195.563 680.7 194.105 681.534C188.317 681.052 186.812 679.8 186.801 673.628C186.756 648.382 185.724 622.974 187.036 597.783C187.113 596.302 189.81 595.041 190.97 594.499Z"/><path fill="#838498" transform="scale(1.06537 1.06537)" d="M906.111 636.942L912.971 637.007C912.9 645.539 913.226 654.001 913.216 662.501C913.208 669.043 912.86 674.695 913.115 681.304L905.984 681.466C905.582 667.35 906.022 651.219 906.111 636.942Z"/><path fill="#838498" transform="scale(1.06537 1.06537)" d="M829.645 672.115C832.054 671.048 834.874 672.1 835.995 674.485C837.115 676.87 836.125 679.713 833.766 680.885C832.192 681.668 830.319 681.537 828.869 680.544C827.42 679.551 826.621 677.852 826.782 676.102C826.943 674.352 828.038 672.827 829.645 672.115Z"/><path fill="#838498" transform="scale(1.06537 1.06537)" d="M907.653 619.819C910.103 618.977 912.774 620.27 913.634 622.715C914.494 625.159 913.221 627.84 910.782 628.717C908.319 629.604 905.605 628.315 904.736 625.845C903.867 623.375 905.176 620.67 907.653 619.819Z"/></svg>