<?xml version="1.0" encoding="utf-8" ?><svg xmlns="http://www.w3.org/2000/svg" xmlns:xlink="http://www.w3.org/1999/xlink" width="1091" height="1091" viewBox="0 0 1091 1091"><path fill="#FCFCFB" transform="scale(1.06537 1.06537)" d="M0 0L1024 0L1024 1024L0 1024L0 0Z"/><path fill="#0A7FF4" transform="scale(1.06537 1.06537)" d="M414.054 444.539C414.257 428.203 418.419 412.16 426.182 397.785C440.079 371.845 460.534 354.598 488.717 345.595C504.722 340.482 521.233 340.096 537.419 344.319C540.843 345.212 546.012 346.576 549.052 348.219C553.659 350.037 558.52 353.354 562.599 356.156C579.408 367.706 592.444 382.404 600.648 401.201C606.292 414.136 609.319 428.061 609.552 442.172C605.198 437.783 599.708 428.952 595.356 423.658C574.501 398.288 548.738 379.842 515.015 377.683C511.096 377.433 505.885 378.192 502.281 377.881C496.876 378.67 491.648 379.411 486.28 380.454C471.831 384.139 462.016 390.017 449.576 398.211C433.349 413.348 425.905 427.066 414.054 444.539Z"/><path fill="#99D438" transform="scale(1.06537 1.06537)" d="M414.054 444.539C414.257 428.203 418.419 412.16 426.182 397.785C440.079 371.845 460.534 354.598 488.717 345.595C504.722 340.482 521.233 340.096 537.419 344.319C540.843 345.212 546.012 346.576 549.052 348.219C511.364 350.162 476.07 367.292 451.226 395.699C450.466 396.576 449.989 397.121 449.576 398.211C433.349 413.348 425.905 427.066 414.054 444.539Z"/><path fill="#1A77F0" transform="scale(1.06537 1.06537)" d="M486.28 380.454C487.735 378.096 488.617 376.986 491.316 376.291L491.177 376.486C493.099 376.307 499.738 377.558 502.281 377.881C496.876 378.67 491.648 379.411 486.28 380.454Z"/><path fill="#99D438" transform="scale(1.06537 1.06537)" d="M414.262 446.53C429.228 470.161 454.871 492.247 481.012 502.251C508.517 512.777 533.332 509.194 559.524 497.459C579.083 486.301 597.671 465.199 609.809 446.48C607.849 463.369 602.964 474.087 594.996 488.585C569.481 535.01 512.676 555.157 465.314 529.03C462.343 527.391 459.169 525.541 456.781 523.102L456.394 522.713C453.051 521.1 449.6 518.021 446.858 515.539C427.183 497.833 415.44 472.971 414.262 446.53Z"/><path fill="#0A7FF4" transform="scale(1.06537 1.06537)" d="M414.262 446.53C429.228 470.161 454.871 492.247 481.012 502.251C508.517 512.777 533.332 509.194 559.524 497.459C552.762 505.554 528.767 516.792 518.716 520.384C498.937 527.451 476.735 528.045 456.394 522.713C453.051 521.1 449.6 518.021 446.858 515.539C427.183 497.833 415.44 472.971 414.262 446.53Z"/><path fill="#1E2938" transform="scale(1.06537 1.06537)" d="M464.386 594.992C465.387 594.971 466.773 594.928 467.748 595.024C469.438 595.191 470.606 595.948 471.512 597.376C473.94 601.202 475.491 608.302 476.895 612.054C480.039 620.458 491.163 661.113 495.174 666.057C497.846 665.534 503.312 639.468 506.55 636.756C508.443 635.171 509.079 635.094 511.504 634.993C512.928 635.68 512.948 635.883 514.463 635.963L514.614 634.76C512.899 631.129 506.319 631.194 506.597 624.152C506.188 619.259 510.032 613.032 510.453 608.638C511.376 598.993 521.095 586.41 525.238 601.741C525.487 602.663 522.068 614.661 521.493 617.304C525.401 626.616 528.606 636.353 532.052 645.831C533.454 649.689 537.974 665.617 540.672 667.126C543.472 664.937 558.405 616.451 560.712 609.305C562.065 604.884 563.062 598.59 567.336 596.048C572.92 592.699 576.964 597.75 575.752 603.316C573.099 615.497 568.251 627.835 564.345 639.655C560.802 650.378 557.187 660.751 553.526 671.4C552.041 675.721 550.173 678.781 545.775 680.549C542.091 681.999 537.98 681.908 534.364 680.298C532.942 679.648 530.503 677.979 529.863 676.582C525.067 666.121 520.915 653.636 516.978 642.923C513.419 653.212 510.629 668.841 505.024 677.49C500.614 684.295 486.052 683.084 482.948 672.561C475.891 648.641 466.297 624.97 461.006 600.653C460.545 598.532 463.059 596.178 464.386 594.992Z"/><path fill="#03D164" transform="scale(1.06537 1.06537)" d="M590.721 347.632C599.125 350.699 607.604 353.39 615.983 356.411C630.97 361.814 646.11 365.952 653.467 381.473C654.987 384.672 656.02 388.081 656.53 391.585C657.351 397.183 657.152 405.426 657.14 411.224C657.056 421.859 657.044 432.496 657.103 443.132C652.819 447.278 650.886 450.58 647.336 454.565C642.869 459.579 633.62 468.218 628.159 472.09C631.574 457.874 632.577 443.185 631.127 428.636C627.915 398.057 613.551 369.884 589.522 350.528L590.721 347.632Z"/><path fill="#1A77F0" transform="scale(1.06537 1.06537)" d="M367.281 441.503C369.756 439.881 371.357 436.409 373.398 434.23C377.796 429.536 388.734 414.874 395.366 415.457C390.937 435.276 391.372 449.673 395.357 469.367C403.749 501.209 417.107 517.172 441.932 537.501C412.368 522.918 365.909 523.124 367.022 481.478C367.092 478.84 367.015 476.119 367.029 473.471L367.179 451.784C367.096 448.518 367.231 444.806 367.281 441.503Z"/><path fill="#0A7FF4" transform="scale(1.06537 1.06537)" d="M367.281 441.503C369.756 439.881 371.357 436.409 373.398 434.23C377.796 429.536 388.734 414.874 395.366 415.457C390.937 435.276 391.372 449.673 395.357 469.367C389.154 469.38 373.331 449.987 367.79 445.222C367.72 447.938 367.709 449.08 367.179 451.784C367.096 448.518 367.231 444.806 367.281 441.503Z"/><path fill="#1E2938" transform="scale(1.06537 1.06537)" d="M596.589 622.114C601.52 621.733 605.044 621.423 609.986 622.665C617.577 624.621 624.097 629.48 628.142 636.195C629.891 639.145 631.1 642.384 631.713 645.758C632.962 652.29 633.063 670.465 631.734 677.451C631.407 679.171 630.407 680.971 628.715 681.707C622.997 684.195 622.395 677.337 619.758 676.405C618.544 676.577 614.948 678.929 613.3 679.679C612.372 679.969 611.436 680.23 610.492 680.461C570.529 690.089 556.74 630.985 596.589 622.114Z"/><path fill="#FCFCFB" transform="scale(1.06537 1.06537)" d="M599.075 634.239C608.622 632.353 617.885 638.582 619.739 648.135C621.592 657.688 615.331 666.929 605.772 668.75C596.259 670.562 587.072 664.338 585.228 654.831C583.383 645.325 589.575 636.117 599.075 634.239Z"/><path fill="#03D164" transform="scale(1.06537 1.06537)" d="M468.46 409.25C482.929 408.428 503.546 410.991 513.309 423.118C518.428 429.476 517.017 431.859 524.704 437.727C527.294 433.574 530.308 429.389 534.992 427.389C544.522 423.32 550.873 430.762 559.572 433.846L560.335 434.111C541.085 436.636 544.919 447.728 534.499 459.515C530.338 464.222 524.457 466.999 518.787 469.415C499.665 475.7 500.37 466.956 489.13 489.519C482.939 485.388 481.046 484.294 477.458 477.778C494.6 474.637 497.853 470.005 507.872 456.553C497.192 451.519 500.832 443.01 494.828 434.792C492.299 432.1 488.253 429.51 485.151 427.629C481.8 425.597 465.805 413.48 466.734 409.556L468.46 409.25Z"/><path fill="#1E2938" transform="scale(1.06537 1.06537)" d="M137.263 595.61C150.027 594.49 161.453 596.751 170.002 607.015C175.478 613.577 178.095 622.06 177.269 630.567C176.443 639.104 172.184 646.94 165.468 652.277C156.184 659.779 146.597 660.079 135.209 659.023C123.868 657.972 125.514 644.827 137.562 646.554C143.665 646.959 150.66 647.942 155.858 643.95C166.151 636.048 167.186 624.323 160.027 614.229C149.64 603.317 130.607 603.82 124.634 617.847C119.991 628.753 123.646 652.365 122.588 664.556C122.058 670.657 124.48 686.47 112.976 680.626C111.489 679.87 110.468 677.794 110.233 676.216C109.757 671.586 109.477 665.914 109.815 661.284C110.689 649.323 108.308 633.059 110.531 621.552C111.435 616.899 113.334 612.496 116.099 608.646C121.408 601.166 128.342 597.193 137.263 595.61Z"/><path fill="#1E2938" transform="scale(1.06537 1.06537)" d="M373.902 621.629C391.219 619.133 405.552 632.216 407.368 648.91C408.581 660.058 392.886 657.568 385.705 657.52C377.445 657.418 369.184 657.425 360.924 657.542C361.269 658.329 361.634 659.106 362.019 659.874C364.168 664.094 368.211 667.74 372.794 669.027C379.922 671.03 384.301 668.418 390.275 665.35C403.621 664.133 398.949 678.474 385.336 681.396C377.248 683.12 368.808 681.583 361.846 677.121C338.299 661.767 345.936 627.491 373.902 621.629Z"/><path fill="#FCFCFB" transform="scale(1.06537 1.06537)" d="M374.961 633.564C385.758 633.117 389.551 636.21 394.632 645.251L382.625 645.427L361.686 645.451C362.199 644.351 362.76 643.275 363.368 642.225C366.356 637.124 369.468 635.034 374.961 633.564Z"/><path fill="#1A77F0" transform="scale(1.06537 1.06537)" d="M367.281 441.503C367.827 425.748 364.501 394.625 370.8 381.752C379.012 364.968 396.328 360.861 412.587 355.275L441.913 345.081C417.147 364.83 403.014 384.267 395.366 415.457C388.734 414.874 377.796 429.536 373.398 434.23C371.357 436.409 369.756 439.881 367.281 441.503Z"/><path fill="#05AE4E" transform="scale(1.06537 1.06537)" d="M628.159 472.09C633.62 468.218 642.869 459.579 647.336 454.565C650.886 450.58 652.819 447.278 657.103 443.132L657.092 470.164C657.146 486.289 659.106 498.015 646.747 510.232C643.978 512.967 640.815 515.274 637.365 517.076C633.229 519.223 627.908 521.031 623.458 522.557C610.013 527.167 596.693 532.699 583.231 537.186C606.61 518.056 619.999 502.077 628.159 472.09Z"/><path fill="#1E2938" transform="scale(1.06537 1.06537)" d="M761.244 594.481C764.529 595.098 766.784 596.408 767.165 599.883C768.126 608.642 767.484 618.913 767.325 627.685C769.043 626.525 771.523 624.821 773.38 623.985C780.063 621.054 787.655 620.989 794.387 623.806C801.239 626.59 806.706 631.981 809.585 638.793C813.203 647.269 812.713 669.894 810.963 679.433C809.912 685.167 801.047 682.181 800.586 678.18C799.476 668.546 800.808 656.492 799.626 646.843C794.785 633.905 781.009 629.802 771.459 639.906C764.716 647.041 769.339 666.79 767.565 676.346C765.725 686.249 756.02 680.797 755.923 678.324C754.914 652.599 755.757 626.481 755.561 600.681C755.523 596.268 758.777 595.39 761.244 594.481Z"/><path fill="#1E2938" transform="scale(1.06537 1.06537)" d="M238.463 621.186C266.895 621.046 271.354 646.696 269.659 668.681C269.313 673.167 270.189 676.248 267.343 680.329C249.299 690.238 262.361 649.775 254.273 640.731C242.167 627.195 224.822 633.21 222.026 649.612C221.809 661.956 230.843 670.928 243.452 668.8C246.469 668.291 251.191 665.939 253.715 667.175C255.695 669.813 255.597 674.679 253.461 677.234C250.861 680.197 247.26 681.05 243.502 681.494C216.536 684.674 199.703 653.303 216.512 632.301C222.138 625.272 229.501 621.989 238.463 621.186Z"/><path fill="#818598" transform="scale(1.06537 1.06537)" d="M866.006 636.556C875.152 635.87 879.632 636.215 886.352 642.96L886.406 636.573L893.428 636.549L893.488 681.216L886.509 681.304C886.458 679.456 886.466 678.291 886.138 676.483L885.367 676.445L883.576 678.163C881.993 679.182 880.289 680 878.505 680.599C849.378 690.438 833.037 645.326 866.006 636.556Z"/><path fill="#FCFCFB" transform="scale(1.06537 1.06537)" d="M867.651 642.829C876.596 641.117 885.231 646.995 886.917 655.945C888.604 664.895 882.701 673.513 873.746 675.174C864.828 676.828 856.252 670.954 854.572 662.04C852.892 653.126 858.742 644.534 867.651 642.829Z"/><path fill="#1E2938" transform="scale(1.06537 1.06537)" d="M715.402 621.678C721.451 621.228 726.678 622.295 732.507 625.39C737.338 627.955 747.489 636.339 742.423 642.836C738.178 648.278 731.919 640.859 728.897 637.524C722.894 631.006 710.235 633.018 705.014 639.393C689.542 658.288 715.905 683.478 732.588 661.858C736.762 656.247 751.053 658.439 741.646 670.442C726.259 690.921 692.257 682.875 688.77 657.228C686.26 638.769 697 624.217 715.402 621.678Z"/><path fill="#1E2938" transform="scale(1.06537 1.06537)" d="M307.011 621.632C331.355 619.245 341.189 640.535 338.651 660.859C338.051 665.662 339.403 671.279 338.39 676.336C337.642 680.062 334.451 682.176 330.653 681.17C325.616 679.225 326.157 672.484 326.322 668.196C326.026 652.712 330.967 639.294 312.631 633.568C309.078 633.389 306.718 633.454 303.535 634.913C287.069 642.954 297.376 665.367 292.908 679.188C291.658 682.855 287.38 683.091 284.591 681.275C281.318 679.128 281.703 672.322 281.922 668.801C282.416 660.847 280.926 650.457 282.599 642.789C283.274 639.722 284.547 636.817 286.345 634.242C291.428 626.886 298.372 623.182 307.011 621.632Z"/><path fill="#1E2938" transform="scale(1.06537 1.06537)" d="M648.072 594.998C658.371 594.382 656.535 603.798 656.58 611.176C656.6 614.536 656.518 617.949 656.496 621.314C661.459 621.547 677.337 620.09 679.829 623.449C689.768 636.847 663.103 634.076 656.484 634C656.374 643.084 654.792 657.614 661.617 664.126C666.293 668.586 670.902 668.527 676.785 668.619C691.362 669.998 683.742 684.055 670.578 681.489C661.007 679.623 656.197 677.129 650 669.135C641.488 658.156 643.985 645.306 643.559 632.44C643.469 621.787 643.418 610.428 644.002 599.764C644.132 597.393 646.288 596.159 648.072 594.998Z"/><path fill="#1E2938" transform="scale(1.06537 1.06537)" d="M421.498 594.985C433.243 594.768 429.546 612.651 429.493 621.467C433.531 621.526 451.063 620.385 453.137 623.48C462.407 637.306 436.628 634.092 429.688 634.043C429.453 649.934 426.906 667.649 448.196 668.744C464.223 668.518 459.405 682.403 445.609 681.571C437.564 681.072 430.059 677.35 424.792 671.249C422.23 668.317 418.583 662.585 418.189 658.492C416.397 639.881 417.755 619.374 417.57 600.53C417.543 597.791 419.642 596.463 421.498 594.985Z"/><path fill="#1E2938" transform="scale(1.06537 1.06537)" d="M189.806 594.561C193.409 594.132 198.306 594.387 198.448 598.933C199.234 624.031 198.8 649.353 198.742 674.479C198.733 678.254 197.954 678.941 195.308 681.369C189.362 681.999 187.131 680.836 186.752 674.563C186.529 670.884 186.508 667.407 186.511 663.717C186.529 642.442 186.246 621.149 186.536 599.878C186.571 597.285 187.996 596.113 189.806 594.561Z"/><path fill="#818598" transform="scale(1.06537 1.06537)" d="M906.411 637.008L912.742 637.076C913.132 651.33 912.872 667.072 912.967 681.432L906.06 681.454C905.995 666.638 906.113 651.822 906.411 637.008Z"/><path fill="#818598" transform="scale(1.06537 1.06537)" d="M830.648 671.825C833.25 671.366 835.75 673.042 836.313 675.622C836.876 678.203 835.302 680.768 832.745 681.434C830.999 681.889 829.143 681.352 827.91 680.033C826.677 678.714 826.265 676.826 826.836 675.114C827.408 673.402 828.871 672.139 830.648 671.825Z"/><path fill="#818598" transform="scale(1.06537 1.06537)" d="M908.417 619.574C910.981 619.094 913.452 620.77 913.954 623.33C914.456 625.89 912.799 628.375 910.244 628.898C907.658 629.426 905.138 627.747 904.63 625.157C904.123 622.568 905.823 620.061 908.417 619.574Z"/><path fill="#05AE4E" transform="scale(1.06537 1.06537)" d="M583.516 345.338C585.889 346.054 588.351 346.876 590.721 347.632L589.522 350.528L583.516 345.338Z"/></svg>